<?xml version="1.0" standalone="no"?>
<!DOCTYPE svg PUBLIC "-//W3C//DTD SVG 20010904//EN"
 "http://www.w3.org/TR/2001/REC-SVG-20010904/DTD/svg10.dtd">
<svg version="1.0" xmlns="http://www.w3.org/2000/svg"
 width="206.000000pt" height="206.000000pt" viewBox="0 0 206.000000 206.000000"
 preserveAspectRatio="xMidYMid meet">

<g transform="translate(0.000000,206.000000) scale(0.100000,-0.100000)"
fill="#000000" stroke="none">
<path d="M810 1821 c-71 -27 -173 -80 -201 -105 -15 -13 -61 -68 -102 -123
-95 -125 -111 -177 -105 -333 4 -84 10 -119 32 -175 53 -135 73 -170 171 -301
38 -51 54 -65 95 -78 54 -18 175 -21 214 -6 32 12 33 3 6 -50 -11 -22 -20 -53
-20 -70 0 -28 -2 -30 -39 -30 -22 0 -46 -6 -53 -13 -15 -16 -73 -37 -180 -66
-145 -40 -294 -135 -403 -257 -41 -46 -77 -96 -80 -111 -3 -16 -10 -42 -15
-59 -13 -41 -13 -44 8 -44 13 0 25 14 37 43 33 76 94 175 128 206 42 40 234
160 267 167 14 3 44 14 68 25 23 10 53 19 65 19 12 1 33 7 47 15 40 23 70 18
102 -17 15 -17 28 -35 28 -39 0 -19 58 -72 103 -95 76 -39 134 -29 221 38 39
30 66 58 66 69 0 27 18 24 122 -24 98 -44 169 -89 204 -128 12 -13 35 -34 50
-46 35 -26 54 -63 85 -161 12 -39 28 -72 34 -72 17 0 -10 134 -35 175 -11 18
-20 40 -20 48 0 9 -10 22 -22 28 -13 6 -42 33 -65 59 -23 26 -66 59 -95 73
-94 46 -202 89 -253 101 l-50 12 -3 55 -3 54 81 0 c44 0 80 -3 80 -6 0 -4 -7
-12 -15 -19 -8 -7 -15 -20 -15 -29 1 -9 11 0 23 21 24 41 43 50 34 18 -3 -11
-1 -20 4 -20 5 0 9 9 9 20 0 27 14 25 45 -6 14 -14 29 -24 32 -20 3 3 -5 15
-18 26 -20 17 -22 21 -9 30 19 13 40 13 40 0 0 -5 5 -10 11 -10 6 0 8 7 5 16
-5 14 27 150 38 162 3 3 26 -1 51 -8 73 -20 77 10 4 31 -30 10 -38 16 -33 28
4 9 9 78 12 154 3 105 8 137 18 137 20 0 132 110 160 156 21 36 24 53 24 140
-1 158 -21 216 -85 245 -11 5 -40 22 -65 37 -84 53 -194 84 -313 90 -89 4
-115 2 -147 -13 -22 -10 -40 -23 -40 -28 0 -6 -10 -1 -23 11 -12 12 -47 28
-77 37 -30 9 -69 20 -86 26 -44 13 -103 10 -154 -10z m181 -32 c35 -11 89 -35
120 -51 l56 -31 21 21 c23 23 102 37 192 35 72 -1 200 -46 272 -94 32 -22 62
-39 68 -39 27 0 43 -53 48 -163 4 -95 2 -118 -13 -147 -17 -33 -122 -150 -135
-150 -3 0 -16 30 -27 68 -30 94 -91 193 -134 214 -37 20 -94 24 -104 8 -3 -5
-20 -10 -36 -10 -21 0 -39 -9 -56 -29 l-25 -28 -49 32 c-63 43 -136 55 -180
28 -18 -10 -50 -47 -71 -83 -32 -52 -42 -80 -50 -145 l-11 -80 -38 37 c-62 59
-158 77 -196 36 -38 -42 -53 -85 -53 -150 0 -62 1 -65 45 -111 24 -26 53 -47
63 -47 11 0 25 -7 32 -15 7 -8 20 -15 30 -15 10 0 20 -7 23 -14 3 -8 22 -17
41 -20 20 -4 51 -8 69 -11 60 -9 71 -85 15 -104 -44 -16 -146 -13 -196 4 -43
15 -91 59 -92 83 0 7 -6 15 -14 18 -7 3 -21 23 -31 45 -10 21 -21 39 -25 39
-10 0 -50 84 -86 175 -36 94 -44 228 -19 321 14 51 33 85 91 160 64 84 134
153 156 154 4 0 24 10 45 23 44 26 127 55 164 56 14 1 55 -8 90 -20z m175
-385 c22 -12 46 -30 54 -38 19 -24 37 -19 57 14 19 33 40 42 100 42 88 2 92
-2 145 -102 l48 -93 0 -124 c0 -68 -4 -123 -8 -123 -11 0 -32 45 -32 68 0 10
-4 22 -9 27 -5 6 -11 20 -13 33 -1 12 -7 23 -13 23 -19 0 -16 -41 5 -102 18
-51 20 -63 9 -70 -20 -12 -57 -11 -65 2 -10 16 -26 -5 -18 -24 9 -25 46 -30
89 -13 21 9 40 14 43 12 2 -3 1 -28 -3 -55 -7 -50 -7 -51 -43 -51 -19 0 -43 7
-53 16 -19 17 -118 46 -131 38 -15 -9 11 -32 45 -40 18 -4 48 -17 67 -30 19
-13 47 -24 62 -24 23 0 28 -4 28 -24 0 -13 -6 -26 -14 -29 -7 -3 -16 -19 -19
-36 -5 -24 -10 -29 -23 -24 -12 4 -15 3 -10 -5 9 -15 -5 -20 -69 -27 -27 -2
-65 -8 -83 -11 -32 -6 -94 8 -187 42 -55 20 -106 69 -145 137 -26 46 -36 56
-51 52 -13 -4 -19 -2 -19 8 0 10 -15 16 -53 19 -67 5 -174 56 -210 99 -26 32
-28 38 -21 94 3 33 13 72 20 88 13 24 20 27 68 27 44 0 63 -6 102 -32 27 -18
59 -48 71 -67 l23 -34 0 55 c0 90 19 164 57 229 55 92 107 106 199 53z m-126
-724 c6 0 29 -12 53 -27 23 -16 53 -30 67 -33 23 -5 25 -10 28 -68 2 -46 7
-62 17 -62 27 0 22 -68 -6 -88 -11 -8 -31 -24 -45 -37 -14 -13 -44 -26 -69
-29 -65 -10 -121 22 -184 106 l-50 68 27 6 c49 10 52 13 52 45 0 17 7 43 15
57 8 15 20 47 26 72 l11 45 24 -28 c12 -15 28 -27 34 -27z"/>
<path d="M1165 1131 c-23 -4 -31 -12 -32 -31 -4 -35 19 -60 60 -67 32 -5 37
-3 42 20 9 33 -7 82 -26 83 -8 1 -27 -1 -44 -5z"/>
<path d="M1619 1086 c-10 -20 -9 -30 5 -51 16 -25 36 -30 67 -17 11 5 15 20
15 47 -1 39 -2 40 -38 43 -32 3 -40 -1 -49 -22z"/>
</g>
</svg>
